M48
;GenerationSoftware,Autodesk,EAGLE,9.6.0*%
;CreationDate,2020-05-08T16:47:11Z*%
FMAT,2
ICI,OFF
METRIC,TZ,000.000
T3C0.381
T2C1.016
T1C3.302
%
G90
M71
T1
X74676Y22860
X106172Y157988
X22860Y22860
X2540Y22860
X22860Y2540
X2540Y2540
X48768Y22860
X28448Y22860
X48768Y2540
X28448Y2540
X54356Y22860
X74676Y2540
X54356Y2540
X100584Y22860
X80264Y22860
X100584Y2540
X80264Y2540
X126492Y22860
X106172Y22860
X126492Y2540
X106172Y2540
X22860Y48768
X2540Y48768
X22860Y28448
X2540Y28448
X48768Y48768
X28448Y48768
X48768Y28448
X28448Y28448
X74676Y48768
X54356Y48768
X74676Y28448
X54356Y28448
X100584Y48768
X80264Y48768
X100584Y28448
X80264Y28448
X126492Y48768
X106172Y48768
X126492Y28448
X106172Y28448
X22860Y74676
X2540Y74676
X22860Y54356
X2540Y54356
X48768Y74676
X28448Y74676
X48768Y54356
X28448Y54356
X74676Y74676
X54356Y74676
X74676Y54356
X54356Y54356
X100584Y74676
X80264Y74676
X100584Y54356
X80264Y54356
X126492Y74676
X106172Y74676
X126492Y54356
X106172Y54356
X22860Y100584
X2540Y100584
X22860Y80264
X2540Y80264
X48768Y100584
X28448Y100584
X48768Y80264
X28448Y80264
X74676Y100584
X54356Y100584
X74676Y80264
X54356Y80264
X100584Y100584
X80264Y100584
X100584Y80264
X80264Y80264
X126492Y100584
X106172Y100584
X126492Y80264
X106172Y80264
X22860Y126492
X2540Y126492
X22860Y106172
X2540Y106172
X48768Y126492
X28448Y126492
X48768Y106172
X28448Y106172
X74676Y126492
X54356Y126492
X74676Y106172
X54356Y106172
X100584Y126492
X80264Y126492
X100584Y106172
X80264Y106172
X126492Y126492
X106172Y126492
X126492Y106172
X106172Y106172
X22860Y152400
X2540Y152400
X22860Y132080
X2540Y132080
X48768Y152400
X28448Y152400
X48768Y132080
X28448Y132080
X74676Y152400
X54356Y152400
X74676Y132080
X54356Y132080
X100584Y152400
X80264Y152400
X100584Y132080
X80264Y132080
X126492Y152400
X106172Y152400
X126492Y132080
X106172Y132080
X22860Y178308
X2540Y178308
X22860Y157988
X2540Y157988
X48768Y178308
X28448Y178308
X48768Y157988
X28448Y157988
X74676Y178308
X54356Y178308
X74676Y157988
X54356Y157988
X100584Y178308
X80264Y178308
X100584Y157988
X80264Y157988
X126492Y178308
X106172Y178308
X126492Y157988
T2
X32258Y78994
X6350Y1270
X8890Y1270
X11430Y1270
X13970Y1270
X16510Y1270
X19050Y1270
X32258Y1270
X34798Y1270
X37338Y1270
X39878Y1270
X42418Y1270
X44958Y1270
X58166Y1270
X60706Y1270
X63246Y1270
X65786Y1270
X68326Y1270
X70866Y1270
X84074Y1270
X86614Y1270
X89154Y1270
X91694Y1270
X94234Y1270
X96774Y1270
X109982Y1270
X112522Y1270
X115062Y1270
X117602Y1270
X120142Y1270
X122682Y1270
X6350Y27178
X8890Y27178
X11430Y27178
X13970Y27178
X16510Y27178
X19050Y27178
X32258Y27178
X34798Y27178
X37338Y27178
X39878Y27178
X42418Y27178
X44958Y27178
X58166Y27178
X60706Y27178
X63246Y27178
X65786Y27178
X68326Y27178
X70866Y27178
X84074Y27178
X86614Y27178
X89154Y27178
X91694Y27178
X94234Y27178
X96774Y27178
X109982Y27178
X112522Y27178
X115062Y27178
X117602Y27178
X120142Y27178
X122682Y27178
X6350Y53086
X8890Y53086
X11430Y53086
X13970Y53086
X16510Y53086
X19050Y53086
X32258Y53086
X34798Y53086
X37338Y53086
X39878Y53086
X42418Y53086
X44958Y53086
X58166Y53086
X60706Y53086
X63246Y53086
X65786Y53086
X68326Y53086
X70866Y53086
X84074Y53086
X86614Y53086
X89154Y53086
X91694Y53086
X94234Y53086
X96774Y53086
X109982Y53086
X112522Y53086
X115062Y53086
X117602Y53086
X120142Y53086
X122682Y53086
X6350Y78994
X8890Y78994
X11430Y78994
X13970Y78994
X16510Y78994
X19050Y78994
X34798Y78994
X37338Y78994
X39878Y78994
X42418Y78994
X44958Y78994
X58166Y78994
X60706Y78994
X63246Y78994
X65786Y78994
X68326Y78994
X70866Y78994
X84074Y78994
X86614Y78994
X89154Y78994
X91694Y78994
X94234Y78994
X96774Y78994
X109982Y78994
X112522Y78994
X115062Y78994
X117602Y78994
X120142Y78994
X122682Y78994
X6350Y104902
X8890Y104902
X11430Y104902
X13970Y104902
X16510Y104902
X19050Y104902
X32258Y104902
X34798Y104902
X37338Y104902
X39878Y104902
X42418Y104902
X44958Y104902
X58166Y104902
X60706Y104902
X63246Y104902
X65786Y104902
X68326Y104902
X70866Y104902
X84074Y104902
X86614Y104902
X89154Y104902
X91694Y104902
X94234Y104902
X96774Y104902
X109982Y104902
X112522Y104902
X115062Y104902
X117602Y104902
X120142Y104902
X122682Y104902
X6350Y130810
X8890Y130810
X11430Y130810
X13970Y130810
X16510Y130810
X19050Y130810
X32258Y130810
X34798Y130810
X37338Y130810
X39878Y130810
X42418Y130810
X44958Y130810
X58166Y130810
X60706Y130810
X63246Y130810
X65786Y130810
X68326Y130810
X70866Y130810
X84074Y130810
X86614Y130810
X89154Y130810
X91694Y130810
X94234Y130810
X96774Y130810
X109982Y130810
X112522Y130810
X115062Y130810
X117602Y130810
X120142Y130810
X122682Y130810
X6350Y156718
X8890Y156718
X11430Y156718
X13970Y156718
X16510Y156718
X19050Y156718
X32258Y156718
X34798Y156718
X37338Y156718
X39878Y156718
X42418Y156718
X44958Y156718
X58166Y156718
X60706Y156718
X63246Y156718
X65786Y156718
X68326Y156718
X70866Y156718
X84074Y156718
X86614Y156718
X89154Y156718
X91694Y156718
X94234Y156718
X96774Y156718
X109982Y156718
X112522Y156718
X115062Y156718
X117602Y156718
X120142Y156718
X122682Y156718
T3
X33528Y118872
X32258Y114832
X69596Y117602
X70866Y113792
X57531Y119380
X66929Y118237
X54864Y114554
X65786Y110109
X69596Y109982
X59016Y117182
X58166Y112522
X62357Y114808
X67183Y115824
X64516Y110363
X72136Y109982
X67364Y109093
X59436Y118872
X58166Y114832
X95504Y117602
X96774Y113792
X83439Y119380
X92837Y118237
X80772Y114554
X91694Y110109
X95504Y109982
X84924Y117182
X84074Y112522
X88265Y114808
X93091Y115824
X90424Y110363
X98044Y109982
X93272Y109093
X85344Y118872
X84074Y114832
X121412Y117602
X122682Y113792
X109347Y119380
X118745Y118237
X106680Y114554
X117602Y110109
X121412Y109982
X110832Y117182
X109982Y112522
X114173Y114808
X118999Y115824
X116332Y110363
X123952Y109982
X119180Y109093
X111252Y118872
X109982Y114832
X17780Y143510
X19050Y139700
X5715Y145288
X15113Y144145
X3048Y140462
X13970Y136017
X17780Y135890
X7200Y143090
X6350Y138430
X10541Y140716
X15367Y141732
X12700Y136271
X20320Y135890
X15548Y135001
X7620Y144780
X6350Y140740
X43688Y143510
X44958Y139700
X31623Y145288
X41021Y144145
X28956Y140462
X39878Y136017
X43688Y135890
X33108Y143090
X32258Y138430
X36449Y140716
X41275Y141732
X38608Y136271
X46228Y135890
X41456Y135001
X33528Y144780
X32258Y140740
X69596Y143510
X70866Y139700
X57531Y145288
X66929Y144145
X54864Y140462
X65786Y136017
X69596Y135890
X59016Y143090
X58166Y138430
X62357Y140716
X67183Y141732
X64516Y136271
X72136Y135890
X67364Y135001
X59436Y144780
X58166Y140740
X95504Y143510
X96774Y139700
X83439Y145288
X92837Y144145
X80772Y140462
X91694Y136017
X95504Y135890
X70866Y36068
X84074Y138430
X88265Y140716
X93091Y141732
X90424Y136271
X98044Y135890
X93272Y135001
X85344Y144780
X84074Y140740
X121412Y143510
X122682Y139700
X109347Y145288
X118745Y144145
X106680Y140462
X117602Y136017
X121412Y135890
X110832Y143090
X109982Y138430
X114173Y140716
X118999Y141732
X116332Y136271
X123952Y135890
X119180Y135001
X111252Y144780
X109982Y140740
X17780Y169418
X19050Y165608
X5715Y171196
X15113Y170053
X3048Y166370
X13970Y161925
X17780Y161798
X7200Y168998
X6350Y164338
X10541Y166624
X15367Y167640
X12700Y162179
X20320Y161798
X15548Y160909
X7620Y170688
X6350Y166648
X43688Y169418
X44958Y165608
X31623Y171196
X41021Y170053
X28956Y166370
X39878Y161925
X43688Y161798
X33108Y168998
X32258Y164338
X36449Y166624
X41275Y167640
X38608Y162179
X46228Y161798
X41456Y160909
X33528Y170688
X32258Y166648
X69596Y169418
X70866Y165608
X57531Y171196
X66929Y170053
X54864Y166370
X65786Y161925
X69596Y161798
X59016Y168998
X58166Y164338
X62357Y166624
X67183Y167640
X64516Y162179
X72136Y161798
X67364Y160909
X59436Y170688
X58166Y166648
X95504Y169418
X96774Y165608
X83439Y171196
X92837Y170053
X80772Y166370
X91694Y161925
X95504Y161798
X84924Y168998
X84074Y164338
X88265Y166624
X93091Y167640
X90424Y162179
X98044Y161798
X93272Y160909
X85344Y170688
X84074Y166648
X121412Y169418
X122682Y165608
X109347Y171196
X118745Y170053
X106680Y166370
X117602Y161925
X121412Y161798
X110832Y168998
X109982Y164338
X114173Y166624
X118999Y167640
X116332Y162179
X123952Y161798
X119180Y160909
X111252Y170688
X109982Y166648
X17780Y13970
X19050Y10160
X5715Y15748
X15113Y14605
X3048Y10922
X13970Y6477
X17780Y6350
X7200Y13550
X84924Y143090
X6350Y8890
X10541Y11176
X15367Y12192
X12700Y6731
X20320Y6350
X15548Y5461
X7620Y15240
X6350Y11200
X43688Y13970
X44958Y10160
X31623Y15748
X41021Y14605
X28956Y10922
X39878Y6477
X43688Y6350
X33108Y13550
X32258Y8890
X36449Y11176
X41275Y12192
X38608Y6731
X46228Y6350
X41456Y5461
X33528Y15240
X32258Y11200
X69596Y13970
X70866Y10160
X57531Y15748
X66929Y14605
X54864Y10922
X65786Y6477
X69596Y6350
X59016Y13550
X58166Y8890
X62357Y11176
X67183Y12192
X64516Y6731
X72136Y6350
X67364Y5461
X59436Y15240
X58166Y11200
X95504Y13970
X96774Y10160
X83439Y15748
X92837Y14605
X80772Y10922
X91694Y6477
X95504Y6350
X84924Y13550
X84074Y8890
X88265Y11176
X93091Y12192
X90424Y6731
X98044Y6350
X93272Y5461
X85344Y15240
X84074Y11200
X121412Y13970
X122682Y10160
X109347Y15748
X118745Y14605
X106680Y10922
X117602Y6477
X121412Y6350
X110832Y13550
X109982Y8890
X114173Y11176
X118999Y12192
X116332Y6731
X123952Y6350
X119180Y5461
X111252Y15240
X109982Y11200
X17780Y39878
X19050Y36068
X5715Y41656
X15113Y40513
X3048Y36830
X13970Y32385
X17780Y32258
X7200Y39458
X6350Y34798
X10541Y37084
X15367Y38100
X12700Y32639
X20320Y32258
X15548Y31369
X7620Y41148
X6350Y37108
X43688Y39878
X44958Y36068
X31623Y41656
X41021Y40513
X28956Y36830
X39878Y32385
X43688Y32258
X33108Y39458
X32258Y34798
X36449Y37084
X41275Y38100
X38608Y32639
X46228Y32258
X41456Y31369
X33528Y41148
X32258Y37108
X69596Y39878
X57531Y41656
X66929Y40513
X54864Y36830
X65786Y32385
X69596Y32258
X59016Y39458
X58166Y34798
X62357Y37084
X67183Y38100
X64516Y32639
X72136Y32258
X67364Y31369
X59436Y41148
X58166Y37108
X95504Y39878
X96774Y36068
X83439Y41656
X92837Y40513
X80772Y36830
X91694Y32385
X95504Y32258
X84924Y39458
X84074Y34798
X88265Y37084
X93091Y38100
X90424Y32639
X98044Y32258
X93272Y31369
X85344Y41148
X84074Y37108
X121412Y39878
X122682Y36068
X109347Y41656
X118745Y40513
X106680Y36830
X117602Y32385
X121412Y32258
X110832Y39458
X109982Y34798
X114173Y37084
X118999Y38100
X116332Y32639
X123952Y32258
X119180Y31369
X111252Y41148
X109982Y37108
X17780Y65786
X19050Y61976
X5715Y67564
X15113Y66421
X3048Y62738
X13970Y58293
X17780Y58166
X7200Y65366
X6350Y60706
X10541Y62992
X15367Y64008
X12700Y58547
X20320Y58166
X15548Y57277
X7620Y67056
X6350Y63016
X43688Y65786
X44958Y61976
X31623Y67564
X41021Y66421
X28956Y62738
X39878Y58293
X43688Y58166
X33108Y65366
X32258Y60706
X36449Y62992
X41275Y64008
X38608Y58547
X46228Y58166
X41456Y57277
X33528Y67056
X32258Y63016
X69596Y65786
X70866Y61976
X57531Y67564
X66929Y66421
X54864Y62738
X65786Y58293
X69596Y58166
X59016Y65366
X58166Y60706
X62357Y62992
X67183Y64008
X64516Y58547
X72136Y58166
X67364Y57277
X59436Y67056
X58166Y63016
X95504Y65786
X96774Y61976
X83439Y67564
X92837Y66421
X80772Y62738
X91694Y58293
X95504Y58166
X84924Y65366
X84074Y60706
X88265Y62992
X93091Y64008
X90424Y58547
X98044Y58166
X93272Y57277
X85344Y67056
X84074Y63016
X121412Y65786
X122682Y61976
X109347Y67564
X118745Y66421
X106680Y62738
X117602Y58293
X121412Y58166
X110832Y65366
X109982Y60706
X114173Y62992
X118999Y64008
X116332Y58547
X43688Y109982
X123952Y58166
X119180Y57277
X111252Y67056
X109982Y63016
X17780Y91694
X19050Y87884
X5715Y93472
X15113Y92329
X3048Y88646
X13970Y84201
X17780Y84074
X7200Y91274
X6350Y86614
X10541Y88900
X15367Y89916
X12700Y84455
X20320Y84074
X15548Y83185
X7620Y92964
X6350Y88924
X43688Y91694
X44958Y87884
X31623Y93472
X41021Y92329
X28956Y88646
X39878Y84201
X43688Y84074
X33108Y91274
X32258Y86614
X36449Y88900
X41275Y89916
X38608Y84455
X46228Y84074
X41456Y83185
X33528Y92964
X32258Y88924
X69596Y91694
X70866Y87884
X57531Y93472
X66929Y92329
X54864Y88646
X65786Y84201
X69596Y84074
X59016Y91274
X58166Y86614
X62357Y88900
X67183Y89916
X64516Y84455
X72136Y84074
X67364Y83185
X59436Y92964
X58166Y88924
X95504Y91694
X96774Y87884
X83439Y93472
X92837Y92329
X80772Y88646
X91694Y84201
X95504Y84074
X84924Y91274
X84074Y86614
X88265Y88900
X93091Y89916
X90424Y84455
X98044Y84074
X93272Y83185
X85344Y92964
X84074Y88924
X121412Y91694
X122682Y87884
X109347Y93472
X118745Y92329
X106680Y88646
X117602Y84201
X121412Y84074
X110832Y91274
X109982Y86614
X114173Y88900
X118999Y89916
X116332Y84455
X123952Y84074
X119180Y83185
X111252Y92964
X109982Y88924
X17780Y117602
X19050Y113792
X5715Y119380
X15113Y118237
X3048Y114554
X13970Y110109
X17780Y109982
X7200Y117182
X6350Y112522
X10541Y114808
X15367Y115824
X12700Y110363
X20320Y109982
X15548Y109093
X7620Y118872
X6350Y114832
X43688Y117602
X44958Y113792
X31623Y119380
X41021Y118237
X28956Y114554
X39878Y110109
X33108Y117182
X32258Y112522
X36449Y114808
X41275Y115824
X38608Y110363
X46228Y109982
X41456Y109093
M30