G04 EAGLE Gerber RS-274X export*
G75*
%MOMM*%
%FSLAX34Y34*%
%LPD*%
%INSolderpaste Top*%
%IPPOS*%
%AMOC8*
5,1,8,0,0,1.08239X$1,22.5*%
G01*
%ADD10R,1.000000X1.100000*%
%ADD11C,0.300000*%
%ADD12R,2.000000X1.200000*%
%ADD13R,1.350000X0.600000*%
%ADD14R,1.100000X1.000000*%
%ADD15R,0.500000X0.250000*%
%ADD16R,0.250000X0.500000*%


D10*
X165100Y118500D03*
X165100Y135500D03*
D11*
X24320Y86050D02*
X24320Y79050D01*
X24320Y86050D02*
X31320Y86050D01*
X31320Y79050D01*
X24320Y79050D01*
X24320Y81900D02*
X31320Y81900D01*
X31320Y84750D02*
X24320Y84750D01*
X6780Y86050D02*
X6780Y79050D01*
X6780Y86050D02*
X13780Y86050D01*
X13780Y79050D01*
X6780Y79050D01*
X6780Y81900D02*
X13780Y81900D01*
X13780Y84750D02*
X6780Y84750D01*
D12*
X239950Y99000D03*
X239950Y155000D03*
D13*
X203200Y112000D03*
X203200Y122000D03*
X203200Y132000D03*
X203200Y142000D03*
D12*
X14050Y155000D03*
X14050Y99000D03*
D13*
X50800Y142000D03*
X50800Y132000D03*
X50800Y122000D03*
X50800Y112000D03*
D10*
X152400Y91050D03*
X152400Y74050D03*
X101600Y91050D03*
X101600Y74050D03*
X88900Y118500D03*
X88900Y135500D03*
D14*
X10550Y63500D03*
X27550Y63500D03*
D15*
X114000Y127000D03*
X140000Y127000D03*
D16*
X122000Y114000D03*
X127000Y114000D03*
X132000Y114000D03*
D15*
X140000Y117000D03*
X140000Y137000D03*
D16*
X132000Y140000D03*
X127000Y140000D03*
X122000Y140000D03*
D15*
X114000Y137000D03*
X114000Y117000D03*
D10*
X424180Y118500D03*
X424180Y135500D03*
D11*
X283400Y86050D02*
X283400Y79050D01*
X283400Y86050D02*
X290400Y86050D01*
X290400Y79050D01*
X283400Y79050D01*
X283400Y81900D02*
X290400Y81900D01*
X290400Y84750D02*
X283400Y84750D01*
X265860Y86050D02*
X265860Y79050D01*
X265860Y86050D02*
X272860Y86050D01*
X272860Y79050D01*
X265860Y79050D01*
X265860Y81900D02*
X272860Y81900D01*
X272860Y84750D02*
X265860Y84750D01*
D12*
X499030Y99000D03*
X499030Y155000D03*
D13*
X462280Y112000D03*
X462280Y122000D03*
X462280Y132000D03*
X462280Y142000D03*
D12*
X273130Y155000D03*
X273130Y99000D03*
D13*
X309880Y142000D03*
X309880Y132000D03*
X309880Y122000D03*
X309880Y112000D03*
D10*
X411480Y91050D03*
X411480Y74050D03*
X360680Y91050D03*
X360680Y74050D03*
X347980Y118500D03*
X347980Y135500D03*
D14*
X269630Y63500D03*
X286630Y63500D03*
D15*
X373080Y127000D03*
X399080Y127000D03*
D16*
X381080Y114000D03*
X386080Y114000D03*
X391080Y114000D03*
D15*
X399080Y117000D03*
X399080Y137000D03*
D16*
X391080Y140000D03*
X386080Y140000D03*
X381080Y140000D03*
D15*
X373080Y137000D03*
X373080Y117000D03*
D10*
X683260Y118500D03*
X683260Y135500D03*
D11*
X542480Y86050D02*
X542480Y79050D01*
X542480Y86050D02*
X549480Y86050D01*
X549480Y79050D01*
X542480Y79050D01*
X542480Y81900D02*
X549480Y81900D01*
X549480Y84750D02*
X542480Y84750D01*
X524940Y86050D02*
X524940Y79050D01*
X524940Y86050D02*
X531940Y86050D01*
X531940Y79050D01*
X524940Y79050D01*
X524940Y81900D02*
X531940Y81900D01*
X531940Y84750D02*
X524940Y84750D01*
D12*
X758110Y99000D03*
X758110Y155000D03*
D13*
X721360Y112000D03*
X721360Y122000D03*
X721360Y132000D03*
X721360Y142000D03*
D12*
X532210Y155000D03*
X532210Y99000D03*
D13*
X568960Y142000D03*
X568960Y132000D03*
X568960Y122000D03*
X568960Y112000D03*
D10*
X670560Y91050D03*
X670560Y74050D03*
X619760Y91050D03*
X619760Y74050D03*
X607060Y118500D03*
X607060Y135500D03*
D14*
X528710Y63500D03*
X545710Y63500D03*
D15*
X632160Y127000D03*
X658160Y127000D03*
D16*
X640160Y114000D03*
X645160Y114000D03*
X650160Y114000D03*
D15*
X658160Y117000D03*
X658160Y137000D03*
D16*
X650160Y140000D03*
X645160Y140000D03*
X640160Y140000D03*
D15*
X632160Y137000D03*
X632160Y117000D03*
D10*
X942340Y118500D03*
X942340Y135500D03*
D11*
X801560Y86050D02*
X801560Y79050D01*
X801560Y86050D02*
X808560Y86050D01*
X808560Y79050D01*
X801560Y79050D01*
X801560Y81900D02*
X808560Y81900D01*
X808560Y84750D02*
X801560Y84750D01*
X784020Y86050D02*
X784020Y79050D01*
X784020Y86050D02*
X791020Y86050D01*
X791020Y79050D01*
X784020Y79050D01*
X784020Y81900D02*
X791020Y81900D01*
X791020Y84750D02*
X784020Y84750D01*
D12*
X1017190Y99000D03*
X1017190Y155000D03*
D13*
X980440Y112000D03*
X980440Y122000D03*
X980440Y132000D03*
X980440Y142000D03*
D12*
X791290Y155000D03*
X791290Y99000D03*
D13*
X828040Y142000D03*
X828040Y132000D03*
X828040Y122000D03*
X828040Y112000D03*
D10*
X929640Y91050D03*
X929640Y74050D03*
X878840Y91050D03*
X878840Y74050D03*
X866140Y118500D03*
X866140Y135500D03*
D14*
X787790Y63500D03*
X804790Y63500D03*
D15*
X891240Y127000D03*
X917240Y127000D03*
D16*
X899240Y114000D03*
X904240Y114000D03*
X909240Y114000D03*
D15*
X917240Y117000D03*
X917240Y137000D03*
D16*
X909240Y140000D03*
X904240Y140000D03*
X899240Y140000D03*
D15*
X891240Y137000D03*
X891240Y117000D03*
D10*
X1201420Y118500D03*
X1201420Y135500D03*
D11*
X1060640Y86050D02*
X1060640Y79050D01*
X1060640Y86050D02*
X1067640Y86050D01*
X1067640Y79050D01*
X1060640Y79050D01*
X1060640Y81900D02*
X1067640Y81900D01*
X1067640Y84750D02*
X1060640Y84750D01*
X1043100Y86050D02*
X1043100Y79050D01*
X1043100Y86050D02*
X1050100Y86050D01*
X1050100Y79050D01*
X1043100Y79050D01*
X1043100Y81900D02*
X1050100Y81900D01*
X1050100Y84750D02*
X1043100Y84750D01*
D12*
X1276270Y99000D03*
X1276270Y155000D03*
D13*
X1239520Y112000D03*
X1239520Y122000D03*
X1239520Y132000D03*
X1239520Y142000D03*
D12*
X1050370Y155000D03*
X1050370Y99000D03*
D13*
X1087120Y142000D03*
X1087120Y132000D03*
X1087120Y122000D03*
X1087120Y112000D03*
D10*
X1188720Y91050D03*
X1188720Y74050D03*
X1137920Y91050D03*
X1137920Y74050D03*
X1125220Y118500D03*
X1125220Y135500D03*
D14*
X1046870Y63500D03*
X1063870Y63500D03*
D15*
X1150320Y127000D03*
X1176320Y127000D03*
D16*
X1158320Y114000D03*
X1163320Y114000D03*
X1168320Y114000D03*
D15*
X1176320Y117000D03*
X1176320Y137000D03*
D16*
X1168320Y140000D03*
X1163320Y140000D03*
X1158320Y140000D03*
D15*
X1150320Y137000D03*
X1150320Y117000D03*
D10*
X165100Y377580D03*
X165100Y394580D03*
D11*
X24320Y345130D02*
X24320Y338130D01*
X24320Y345130D02*
X31320Y345130D01*
X31320Y338130D01*
X24320Y338130D01*
X24320Y340980D02*
X31320Y340980D01*
X31320Y343830D02*
X24320Y343830D01*
X6780Y345130D02*
X6780Y338130D01*
X6780Y345130D02*
X13780Y345130D01*
X13780Y338130D01*
X6780Y338130D01*
X6780Y340980D02*
X13780Y340980D01*
X13780Y343830D02*
X6780Y343830D01*
D12*
X239950Y358080D03*
X239950Y414080D03*
D13*
X203200Y371080D03*
X203200Y381080D03*
X203200Y391080D03*
X203200Y401080D03*
D12*
X14050Y414080D03*
X14050Y358080D03*
D13*
X50800Y401080D03*
X50800Y391080D03*
X50800Y381080D03*
X50800Y371080D03*
D10*
X152400Y350130D03*
X152400Y333130D03*
X101600Y350130D03*
X101600Y333130D03*
X88900Y377580D03*
X88900Y394580D03*
D14*
X10550Y322580D03*
X27550Y322580D03*
D15*
X114000Y386080D03*
X140000Y386080D03*
D16*
X122000Y373080D03*
X127000Y373080D03*
X132000Y373080D03*
D15*
X140000Y376080D03*
X140000Y396080D03*
D16*
X132000Y399080D03*
X127000Y399080D03*
X122000Y399080D03*
D15*
X114000Y396080D03*
X114000Y376080D03*
D10*
X424180Y377580D03*
X424180Y394580D03*
D11*
X283400Y345130D02*
X283400Y338130D01*
X283400Y345130D02*
X290400Y345130D01*
X290400Y338130D01*
X283400Y338130D01*
X283400Y340980D02*
X290400Y340980D01*
X290400Y343830D02*
X283400Y343830D01*
X265860Y345130D02*
X265860Y338130D01*
X265860Y345130D02*
X272860Y345130D01*
X272860Y338130D01*
X265860Y338130D01*
X265860Y340980D02*
X272860Y340980D01*
X272860Y343830D02*
X265860Y343830D01*
D12*
X499030Y358080D03*
X499030Y414080D03*
D13*
X462280Y371080D03*
X462280Y381080D03*
X462280Y391080D03*
X462280Y401080D03*
D12*
X273130Y414080D03*
X273130Y358080D03*
D13*
X309880Y401080D03*
X309880Y391080D03*
X309880Y381080D03*
X309880Y371080D03*
D10*
X411480Y350130D03*
X411480Y333130D03*
X360680Y350130D03*
X360680Y333130D03*
X347980Y377580D03*
X347980Y394580D03*
D14*
X269630Y322580D03*
X286630Y322580D03*
D15*
X373080Y386080D03*
X399080Y386080D03*
D16*
X381080Y373080D03*
X386080Y373080D03*
X391080Y373080D03*
D15*
X399080Y376080D03*
X399080Y396080D03*
D16*
X391080Y399080D03*
X386080Y399080D03*
X381080Y399080D03*
D15*
X373080Y396080D03*
X373080Y376080D03*
D10*
X683260Y377580D03*
X683260Y394580D03*
D11*
X542480Y345130D02*
X542480Y338130D01*
X542480Y345130D02*
X549480Y345130D01*
X549480Y338130D01*
X542480Y338130D01*
X542480Y340980D02*
X549480Y340980D01*
X549480Y343830D02*
X542480Y343830D01*
X524940Y345130D02*
X524940Y338130D01*
X524940Y345130D02*
X531940Y345130D01*
X531940Y338130D01*
X524940Y338130D01*
X524940Y340980D02*
X531940Y340980D01*
X531940Y343830D02*
X524940Y343830D01*
D12*
X758110Y358080D03*
X758110Y414080D03*
D13*
X721360Y371080D03*
X721360Y381080D03*
X721360Y391080D03*
X721360Y401080D03*
D12*
X532210Y414080D03*
X532210Y358080D03*
D13*
X568960Y401080D03*
X568960Y391080D03*
X568960Y381080D03*
X568960Y371080D03*
D10*
X670560Y350130D03*
X670560Y333130D03*
X619760Y350130D03*
X619760Y333130D03*
X607060Y377580D03*
X607060Y394580D03*
D14*
X528710Y322580D03*
X545710Y322580D03*
D15*
X632160Y386080D03*
X658160Y386080D03*
D16*
X640160Y373080D03*
X645160Y373080D03*
X650160Y373080D03*
D15*
X658160Y376080D03*
X658160Y396080D03*
D16*
X650160Y399080D03*
X645160Y399080D03*
X640160Y399080D03*
D15*
X632160Y396080D03*
X632160Y376080D03*
D10*
X942340Y377580D03*
X942340Y394580D03*
D11*
X801560Y345130D02*
X801560Y338130D01*
X801560Y345130D02*
X808560Y345130D01*
X808560Y338130D01*
X801560Y338130D01*
X801560Y340980D02*
X808560Y340980D01*
X808560Y343830D02*
X801560Y343830D01*
X784020Y345130D02*
X784020Y338130D01*
X784020Y345130D02*
X791020Y345130D01*
X791020Y338130D01*
X784020Y338130D01*
X784020Y340980D02*
X791020Y340980D01*
X791020Y343830D02*
X784020Y343830D01*
D12*
X1017190Y358080D03*
X1017190Y414080D03*
D13*
X980440Y371080D03*
X980440Y381080D03*
X980440Y391080D03*
X980440Y401080D03*
D12*
X791290Y414080D03*
X791290Y358080D03*
D13*
X828040Y401080D03*
X828040Y391080D03*
X828040Y381080D03*
X828040Y371080D03*
D10*
X929640Y350130D03*
X929640Y333130D03*
X878840Y350130D03*
X878840Y333130D03*
X866140Y377580D03*
X866140Y394580D03*
D14*
X787790Y322580D03*
X804790Y322580D03*
D15*
X891240Y386080D03*
X917240Y386080D03*
D16*
X899240Y373080D03*
X904240Y373080D03*
X909240Y373080D03*
D15*
X917240Y376080D03*
X917240Y396080D03*
D16*
X909240Y399080D03*
X904240Y399080D03*
X899240Y399080D03*
D15*
X891240Y396080D03*
X891240Y376080D03*
D10*
X1201420Y377580D03*
X1201420Y394580D03*
D11*
X1060640Y345130D02*
X1060640Y338130D01*
X1060640Y345130D02*
X1067640Y345130D01*
X1067640Y338130D01*
X1060640Y338130D01*
X1060640Y340980D02*
X1067640Y340980D01*
X1067640Y343830D02*
X1060640Y343830D01*
X1043100Y345130D02*
X1043100Y338130D01*
X1043100Y345130D02*
X1050100Y345130D01*
X1050100Y338130D01*
X1043100Y338130D01*
X1043100Y340980D02*
X1050100Y340980D01*
X1050100Y343830D02*
X1043100Y343830D01*
D12*
X1276270Y358080D03*
X1276270Y414080D03*
D13*
X1239520Y371080D03*
X1239520Y381080D03*
X1239520Y391080D03*
X1239520Y401080D03*
D12*
X1050370Y414080D03*
X1050370Y358080D03*
D13*
X1087120Y401080D03*
X1087120Y391080D03*
X1087120Y381080D03*
X1087120Y371080D03*
D10*
X1188720Y350130D03*
X1188720Y333130D03*
X1137920Y350130D03*
X1137920Y333130D03*
X1125220Y377580D03*
X1125220Y394580D03*
D14*
X1046870Y322580D03*
X1063870Y322580D03*
D15*
X1150320Y386080D03*
X1176320Y386080D03*
D16*
X1158320Y373080D03*
X1163320Y373080D03*
X1168320Y373080D03*
D15*
X1176320Y376080D03*
X1176320Y396080D03*
D16*
X1168320Y399080D03*
X1163320Y399080D03*
X1158320Y399080D03*
D15*
X1150320Y396080D03*
X1150320Y376080D03*
D10*
X165100Y636660D03*
X165100Y653660D03*
D11*
X24320Y604210D02*
X24320Y597210D01*
X24320Y604210D02*
X31320Y604210D01*
X31320Y597210D01*
X24320Y597210D01*
X24320Y600060D02*
X31320Y600060D01*
X31320Y602910D02*
X24320Y602910D01*
X6780Y604210D02*
X6780Y597210D01*
X6780Y604210D02*
X13780Y604210D01*
X13780Y597210D01*
X6780Y597210D01*
X6780Y600060D02*
X13780Y600060D01*
X13780Y602910D02*
X6780Y602910D01*
D12*
X239950Y617160D03*
X239950Y673160D03*
D13*
X203200Y630160D03*
X203200Y640160D03*
X203200Y650160D03*
X203200Y660160D03*
D12*
X14050Y673160D03*
X14050Y617160D03*
D13*
X50800Y660160D03*
X50800Y650160D03*
X50800Y640160D03*
X50800Y630160D03*
D10*
X152400Y609210D03*
X152400Y592210D03*
X101600Y609210D03*
X101600Y592210D03*
X88900Y636660D03*
X88900Y653660D03*
D14*
X10550Y581660D03*
X27550Y581660D03*
D15*
X114000Y645160D03*
X140000Y645160D03*
D16*
X122000Y632160D03*
X127000Y632160D03*
X132000Y632160D03*
D15*
X140000Y635160D03*
X140000Y655160D03*
D16*
X132000Y658160D03*
X127000Y658160D03*
X122000Y658160D03*
D15*
X114000Y655160D03*
X114000Y635160D03*
D10*
X424180Y636660D03*
X424180Y653660D03*
D11*
X283400Y604210D02*
X283400Y597210D01*
X283400Y604210D02*
X290400Y604210D01*
X290400Y597210D01*
X283400Y597210D01*
X283400Y600060D02*
X290400Y600060D01*
X290400Y602910D02*
X283400Y602910D01*
X265860Y604210D02*
X265860Y597210D01*
X265860Y604210D02*
X272860Y604210D01*
X272860Y597210D01*
X265860Y597210D01*
X265860Y600060D02*
X272860Y600060D01*
X272860Y602910D02*
X265860Y602910D01*
D12*
X499030Y617160D03*
X499030Y673160D03*
D13*
X462280Y630160D03*
X462280Y640160D03*
X462280Y650160D03*
X462280Y660160D03*
D12*
X273130Y673160D03*
X273130Y617160D03*
D13*
X309880Y660160D03*
X309880Y650160D03*
X309880Y640160D03*
X309880Y630160D03*
D10*
X411480Y609210D03*
X411480Y592210D03*
X360680Y609210D03*
X360680Y592210D03*
X347980Y636660D03*
X347980Y653660D03*
D14*
X269630Y581660D03*
X286630Y581660D03*
D15*
X373080Y645160D03*
X399080Y645160D03*
D16*
X381080Y632160D03*
X386080Y632160D03*
X391080Y632160D03*
D15*
X399080Y635160D03*
X399080Y655160D03*
D16*
X391080Y658160D03*
X386080Y658160D03*
X381080Y658160D03*
D15*
X373080Y655160D03*
X373080Y635160D03*
D10*
X683260Y636660D03*
X683260Y653660D03*
D11*
X542480Y604210D02*
X542480Y597210D01*
X542480Y604210D02*
X549480Y604210D01*
X549480Y597210D01*
X542480Y597210D01*
X542480Y600060D02*
X549480Y600060D01*
X549480Y602910D02*
X542480Y602910D01*
X524940Y604210D02*
X524940Y597210D01*
X524940Y604210D02*
X531940Y604210D01*
X531940Y597210D01*
X524940Y597210D01*
X524940Y600060D02*
X531940Y600060D01*
X531940Y602910D02*
X524940Y602910D01*
D12*
X758110Y617160D03*
X758110Y673160D03*
D13*
X721360Y630160D03*
X721360Y640160D03*
X721360Y650160D03*
X721360Y660160D03*
D12*
X532210Y673160D03*
X532210Y617160D03*
D13*
X568960Y660160D03*
X568960Y650160D03*
X568960Y640160D03*
X568960Y630160D03*
D10*
X670560Y609210D03*
X670560Y592210D03*
X619760Y609210D03*
X619760Y592210D03*
X607060Y636660D03*
X607060Y653660D03*
D14*
X528710Y581660D03*
X545710Y581660D03*
D15*
X632160Y645160D03*
X658160Y645160D03*
D16*
X640160Y632160D03*
X645160Y632160D03*
X650160Y632160D03*
D15*
X658160Y635160D03*
X658160Y655160D03*
D16*
X650160Y658160D03*
X645160Y658160D03*
X640160Y658160D03*
D15*
X632160Y655160D03*
X632160Y635160D03*
D10*
X942340Y636660D03*
X942340Y653660D03*
D11*
X801560Y604210D02*
X801560Y597210D01*
X801560Y604210D02*
X808560Y604210D01*
X808560Y597210D01*
X801560Y597210D01*
X801560Y600060D02*
X808560Y600060D01*
X808560Y602910D02*
X801560Y602910D01*
X784020Y604210D02*
X784020Y597210D01*
X784020Y604210D02*
X791020Y604210D01*
X791020Y597210D01*
X784020Y597210D01*
X784020Y600060D02*
X791020Y600060D01*
X791020Y602910D02*
X784020Y602910D01*
D12*
X1017190Y617160D03*
X1017190Y673160D03*
D13*
X980440Y630160D03*
X980440Y640160D03*
X980440Y650160D03*
X980440Y660160D03*
D12*
X791290Y673160D03*
X791290Y617160D03*
D13*
X828040Y660160D03*
X828040Y650160D03*
X828040Y640160D03*
X828040Y630160D03*
D10*
X929640Y609210D03*
X929640Y592210D03*
X878840Y609210D03*
X878840Y592210D03*
X866140Y636660D03*
X866140Y653660D03*
D14*
X787790Y581660D03*
X804790Y581660D03*
D15*
X891240Y645160D03*
X917240Y645160D03*
D16*
X899240Y632160D03*
X904240Y632160D03*
X909240Y632160D03*
D15*
X917240Y635160D03*
X917240Y655160D03*
D16*
X909240Y658160D03*
X904240Y658160D03*
X899240Y658160D03*
D15*
X891240Y655160D03*
X891240Y635160D03*
D10*
X1201420Y636660D03*
X1201420Y653660D03*
D11*
X1060640Y604210D02*
X1060640Y597210D01*
X1060640Y604210D02*
X1067640Y604210D01*
X1067640Y597210D01*
X1060640Y597210D01*
X1060640Y600060D02*
X1067640Y600060D01*
X1067640Y602910D02*
X1060640Y602910D01*
X1043100Y604210D02*
X1043100Y597210D01*
X1043100Y604210D02*
X1050100Y604210D01*
X1050100Y597210D01*
X1043100Y597210D01*
X1043100Y600060D02*
X1050100Y600060D01*
X1050100Y602910D02*
X1043100Y602910D01*
D12*
X1276270Y617160D03*
X1276270Y673160D03*
D13*
X1239520Y630160D03*
X1239520Y640160D03*
X1239520Y650160D03*
X1239520Y660160D03*
D12*
X1050370Y673160D03*
X1050370Y617160D03*
D13*
X1087120Y660160D03*
X1087120Y650160D03*
X1087120Y640160D03*
X1087120Y630160D03*
D10*
X1188720Y609210D03*
X1188720Y592210D03*
X1137920Y609210D03*
X1137920Y592210D03*
X1125220Y636660D03*
X1125220Y653660D03*
D14*
X1046870Y581660D03*
X1063870Y581660D03*
D15*
X1150320Y645160D03*
X1176320Y645160D03*
D16*
X1158320Y632160D03*
X1163320Y632160D03*
X1168320Y632160D03*
D15*
X1176320Y635160D03*
X1176320Y655160D03*
D16*
X1168320Y658160D03*
X1163320Y658160D03*
X1158320Y658160D03*
D15*
X1150320Y655160D03*
X1150320Y635160D03*
D10*
X165100Y895740D03*
X165100Y912740D03*
D11*
X24320Y863290D02*
X24320Y856290D01*
X24320Y863290D02*
X31320Y863290D01*
X31320Y856290D01*
X24320Y856290D01*
X24320Y859140D02*
X31320Y859140D01*
X31320Y861990D02*
X24320Y861990D01*
X6780Y863290D02*
X6780Y856290D01*
X6780Y863290D02*
X13780Y863290D01*
X13780Y856290D01*
X6780Y856290D01*
X6780Y859140D02*
X13780Y859140D01*
X13780Y861990D02*
X6780Y861990D01*
D12*
X239950Y876240D03*
X239950Y932240D03*
D13*
X203200Y889240D03*
X203200Y899240D03*
X203200Y909240D03*
X203200Y919240D03*
D12*
X14050Y932240D03*
X14050Y876240D03*
D13*
X50800Y919240D03*
X50800Y909240D03*
X50800Y899240D03*
X50800Y889240D03*
D10*
X152400Y868290D03*
X152400Y851290D03*
X101600Y868290D03*
X101600Y851290D03*
X88900Y895740D03*
X88900Y912740D03*
D14*
X10550Y840740D03*
X27550Y840740D03*
D15*
X114000Y904240D03*
X140000Y904240D03*
D16*
X122000Y891240D03*
X127000Y891240D03*
X132000Y891240D03*
D15*
X140000Y894240D03*
X140000Y914240D03*
D16*
X132000Y917240D03*
X127000Y917240D03*
X122000Y917240D03*
D15*
X114000Y914240D03*
X114000Y894240D03*
D10*
X424180Y895740D03*
X424180Y912740D03*
D11*
X283400Y863290D02*
X283400Y856290D01*
X283400Y863290D02*
X290400Y863290D01*
X290400Y856290D01*
X283400Y856290D01*
X283400Y859140D02*
X290400Y859140D01*
X290400Y861990D02*
X283400Y861990D01*
X265860Y863290D02*
X265860Y856290D01*
X265860Y863290D02*
X272860Y863290D01*
X272860Y856290D01*
X265860Y856290D01*
X265860Y859140D02*
X272860Y859140D01*
X272860Y861990D02*
X265860Y861990D01*
D12*
X499030Y876240D03*
X499030Y932240D03*
D13*
X462280Y889240D03*
X462280Y899240D03*
X462280Y909240D03*
X462280Y919240D03*
D12*
X273130Y932240D03*
X273130Y876240D03*
D13*
X309880Y919240D03*
X309880Y909240D03*
X309880Y899240D03*
X309880Y889240D03*
D10*
X411480Y868290D03*
X411480Y851290D03*
X360680Y868290D03*
X360680Y851290D03*
X347980Y895740D03*
X347980Y912740D03*
D14*
X269630Y840740D03*
X286630Y840740D03*
D15*
X373080Y904240D03*
X399080Y904240D03*
D16*
X381080Y891240D03*
X386080Y891240D03*
X391080Y891240D03*
D15*
X399080Y894240D03*
X399080Y914240D03*
D16*
X391080Y917240D03*
X386080Y917240D03*
X381080Y917240D03*
D15*
X373080Y914240D03*
X373080Y894240D03*
D10*
X683260Y895740D03*
X683260Y912740D03*
D11*
X542480Y863290D02*
X542480Y856290D01*
X542480Y863290D02*
X549480Y863290D01*
X549480Y856290D01*
X542480Y856290D01*
X542480Y859140D02*
X549480Y859140D01*
X549480Y861990D02*
X542480Y861990D01*
X524940Y863290D02*
X524940Y856290D01*
X524940Y863290D02*
X531940Y863290D01*
X531940Y856290D01*
X524940Y856290D01*
X524940Y859140D02*
X531940Y859140D01*
X531940Y861990D02*
X524940Y861990D01*
D12*
X758110Y876240D03*
X758110Y932240D03*
D13*
X721360Y889240D03*
X721360Y899240D03*
X721360Y909240D03*
X721360Y919240D03*
D12*
X532210Y932240D03*
X532210Y876240D03*
D13*
X568960Y919240D03*
X568960Y909240D03*
X568960Y899240D03*
X568960Y889240D03*
D10*
X670560Y868290D03*
X670560Y851290D03*
X619760Y868290D03*
X619760Y851290D03*
X607060Y895740D03*
X607060Y912740D03*
D14*
X528710Y840740D03*
X545710Y840740D03*
D15*
X632160Y904240D03*
X658160Y904240D03*
D16*
X640160Y891240D03*
X645160Y891240D03*
X650160Y891240D03*
D15*
X658160Y894240D03*
X658160Y914240D03*
D16*
X650160Y917240D03*
X645160Y917240D03*
X640160Y917240D03*
D15*
X632160Y914240D03*
X632160Y894240D03*
D10*
X942340Y895740D03*
X942340Y912740D03*
D11*
X801560Y863290D02*
X801560Y856290D01*
X801560Y863290D02*
X808560Y863290D01*
X808560Y856290D01*
X801560Y856290D01*
X801560Y859140D02*
X808560Y859140D01*
X808560Y861990D02*
X801560Y861990D01*
X784020Y863290D02*
X784020Y856290D01*
X784020Y863290D02*
X791020Y863290D01*
X791020Y856290D01*
X784020Y856290D01*
X784020Y859140D02*
X791020Y859140D01*
X791020Y861990D02*
X784020Y861990D01*
D12*
X1017190Y876240D03*
X1017190Y932240D03*
D13*
X980440Y889240D03*
X980440Y899240D03*
X980440Y909240D03*
X980440Y919240D03*
D12*
X791290Y932240D03*
X791290Y876240D03*
D13*
X828040Y919240D03*
X828040Y909240D03*
X828040Y899240D03*
X828040Y889240D03*
D10*
X929640Y868290D03*
X929640Y851290D03*
X878840Y868290D03*
X878840Y851290D03*
X866140Y895740D03*
X866140Y912740D03*
D14*
X787790Y840740D03*
X804790Y840740D03*
D15*
X891240Y904240D03*
X917240Y904240D03*
D16*
X899240Y891240D03*
X904240Y891240D03*
X909240Y891240D03*
D15*
X917240Y894240D03*
X917240Y914240D03*
D16*
X909240Y917240D03*
X904240Y917240D03*
X899240Y917240D03*
D15*
X891240Y914240D03*
X891240Y894240D03*
D10*
X1201420Y895740D03*
X1201420Y912740D03*
D11*
X1060640Y863290D02*
X1060640Y856290D01*
X1060640Y863290D02*
X1067640Y863290D01*
X1067640Y856290D01*
X1060640Y856290D01*
X1060640Y859140D02*
X1067640Y859140D01*
X1067640Y861990D02*
X1060640Y861990D01*
X1043100Y863290D02*
X1043100Y856290D01*
X1043100Y863290D02*
X1050100Y863290D01*
X1050100Y856290D01*
X1043100Y856290D01*
X1043100Y859140D02*
X1050100Y859140D01*
X1050100Y861990D02*
X1043100Y861990D01*
D12*
X1276270Y876240D03*
X1276270Y932240D03*
D13*
X1239520Y889240D03*
X1239520Y899240D03*
X1239520Y909240D03*
X1239520Y919240D03*
D12*
X1050370Y932240D03*
X1050370Y876240D03*
D13*
X1087120Y919240D03*
X1087120Y909240D03*
X1087120Y899240D03*
X1087120Y889240D03*
D10*
X1188720Y868290D03*
X1188720Y851290D03*
X1137920Y868290D03*
X1137920Y851290D03*
X1125220Y895740D03*
X1125220Y912740D03*
D14*
X1046870Y840740D03*
X1063870Y840740D03*
D15*
X1150320Y904240D03*
X1176320Y904240D03*
D16*
X1158320Y891240D03*
X1163320Y891240D03*
X1168320Y891240D03*
D15*
X1176320Y894240D03*
X1176320Y914240D03*
D16*
X1168320Y917240D03*
X1163320Y917240D03*
X1158320Y917240D03*
D15*
X1150320Y914240D03*
X1150320Y894240D03*
D10*
X165100Y1154820D03*
X165100Y1171820D03*
D11*
X24320Y1122370D02*
X24320Y1115370D01*
X24320Y1122370D02*
X31320Y1122370D01*
X31320Y1115370D01*
X24320Y1115370D01*
X24320Y1118220D02*
X31320Y1118220D01*
X31320Y1121070D02*
X24320Y1121070D01*
X6780Y1122370D02*
X6780Y1115370D01*
X6780Y1122370D02*
X13780Y1122370D01*
X13780Y1115370D01*
X6780Y1115370D01*
X6780Y1118220D02*
X13780Y1118220D01*
X13780Y1121070D02*
X6780Y1121070D01*
D12*
X239950Y1135320D03*
X239950Y1191320D03*
D13*
X203200Y1148320D03*
X203200Y1158320D03*
X203200Y1168320D03*
X203200Y1178320D03*
D12*
X14050Y1191320D03*
X14050Y1135320D03*
D13*
X50800Y1178320D03*
X50800Y1168320D03*
X50800Y1158320D03*
X50800Y1148320D03*
D10*
X152400Y1127370D03*
X152400Y1110370D03*
X101600Y1127370D03*
X101600Y1110370D03*
X88900Y1154820D03*
X88900Y1171820D03*
D14*
X10550Y1099820D03*
X27550Y1099820D03*
D15*
X114000Y1163320D03*
X140000Y1163320D03*
D16*
X122000Y1150320D03*
X127000Y1150320D03*
X132000Y1150320D03*
D15*
X140000Y1153320D03*
X140000Y1173320D03*
D16*
X132000Y1176320D03*
X127000Y1176320D03*
X122000Y1176320D03*
D15*
X114000Y1173320D03*
X114000Y1153320D03*
D10*
X424180Y1154820D03*
X424180Y1171820D03*
D11*
X283400Y1122370D02*
X283400Y1115370D01*
X283400Y1122370D02*
X290400Y1122370D01*
X290400Y1115370D01*
X283400Y1115370D01*
X283400Y1118220D02*
X290400Y1118220D01*
X290400Y1121070D02*
X283400Y1121070D01*
X265860Y1122370D02*
X265860Y1115370D01*
X265860Y1122370D02*
X272860Y1122370D01*
X272860Y1115370D01*
X265860Y1115370D01*
X265860Y1118220D02*
X272860Y1118220D01*
X272860Y1121070D02*
X265860Y1121070D01*
D12*
X499030Y1135320D03*
X499030Y1191320D03*
D13*
X462280Y1148320D03*
X462280Y1158320D03*
X462280Y1168320D03*
X462280Y1178320D03*
D12*
X273130Y1191320D03*
X273130Y1135320D03*
D13*
X309880Y1178320D03*
X309880Y1168320D03*
X309880Y1158320D03*
X309880Y1148320D03*
D10*
X411480Y1127370D03*
X411480Y1110370D03*
X360680Y1127370D03*
X360680Y1110370D03*
X347980Y1154820D03*
X347980Y1171820D03*
D14*
X269630Y1099820D03*
X286630Y1099820D03*
D15*
X373080Y1163320D03*
X399080Y1163320D03*
D16*
X381080Y1150320D03*
X386080Y1150320D03*
X391080Y1150320D03*
D15*
X399080Y1153320D03*
X399080Y1173320D03*
D16*
X391080Y1176320D03*
X386080Y1176320D03*
X381080Y1176320D03*
D15*
X373080Y1173320D03*
X373080Y1153320D03*
D10*
X683260Y1154820D03*
X683260Y1171820D03*
D11*
X542480Y1122370D02*
X542480Y1115370D01*
X542480Y1122370D02*
X549480Y1122370D01*
X549480Y1115370D01*
X542480Y1115370D01*
X542480Y1118220D02*
X549480Y1118220D01*
X549480Y1121070D02*
X542480Y1121070D01*
X524940Y1122370D02*
X524940Y1115370D01*
X524940Y1122370D02*
X531940Y1122370D01*
X531940Y1115370D01*
X524940Y1115370D01*
X524940Y1118220D02*
X531940Y1118220D01*
X531940Y1121070D02*
X524940Y1121070D01*
D12*
X758110Y1135320D03*
X758110Y1191320D03*
D13*
X721360Y1148320D03*
X721360Y1158320D03*
X721360Y1168320D03*
X721360Y1178320D03*
D12*
X532210Y1191320D03*
X532210Y1135320D03*
D13*
X568960Y1178320D03*
X568960Y1168320D03*
X568960Y1158320D03*
X568960Y1148320D03*
D10*
X670560Y1127370D03*
X670560Y1110370D03*
X619760Y1127370D03*
X619760Y1110370D03*
X607060Y1154820D03*
X607060Y1171820D03*
D14*
X528710Y1099820D03*
X545710Y1099820D03*
D15*
X632160Y1163320D03*
X658160Y1163320D03*
D16*
X640160Y1150320D03*
X645160Y1150320D03*
X650160Y1150320D03*
D15*
X658160Y1153320D03*
X658160Y1173320D03*
D16*
X650160Y1176320D03*
X645160Y1176320D03*
X640160Y1176320D03*
D15*
X632160Y1173320D03*
X632160Y1153320D03*
D10*
X942340Y1154820D03*
X942340Y1171820D03*
D11*
X801560Y1122370D02*
X801560Y1115370D01*
X801560Y1122370D02*
X808560Y1122370D01*
X808560Y1115370D01*
X801560Y1115370D01*
X801560Y1118220D02*
X808560Y1118220D01*
X808560Y1121070D02*
X801560Y1121070D01*
X784020Y1122370D02*
X784020Y1115370D01*
X784020Y1122370D02*
X791020Y1122370D01*
X791020Y1115370D01*
X784020Y1115370D01*
X784020Y1118220D02*
X791020Y1118220D01*
X791020Y1121070D02*
X784020Y1121070D01*
D12*
X1017190Y1135320D03*
X1017190Y1191320D03*
D13*
X980440Y1148320D03*
X980440Y1158320D03*
X980440Y1168320D03*
X980440Y1178320D03*
D12*
X791290Y1191320D03*
X791290Y1135320D03*
D13*
X828040Y1178320D03*
X828040Y1168320D03*
X828040Y1158320D03*
X828040Y1148320D03*
D10*
X929640Y1127370D03*
X929640Y1110370D03*
X878840Y1127370D03*
X878840Y1110370D03*
X866140Y1154820D03*
X866140Y1171820D03*
D14*
X787790Y1099820D03*
X804790Y1099820D03*
D15*
X891240Y1163320D03*
X917240Y1163320D03*
D16*
X899240Y1150320D03*
X904240Y1150320D03*
X909240Y1150320D03*
D15*
X917240Y1153320D03*
X917240Y1173320D03*
D16*
X909240Y1176320D03*
X904240Y1176320D03*
X899240Y1176320D03*
D15*
X891240Y1173320D03*
X891240Y1153320D03*
D10*
X1201420Y1154820D03*
X1201420Y1171820D03*
D11*
X1060640Y1122370D02*
X1060640Y1115370D01*
X1060640Y1122370D02*
X1067640Y1122370D01*
X1067640Y1115370D01*
X1060640Y1115370D01*
X1060640Y1118220D02*
X1067640Y1118220D01*
X1067640Y1121070D02*
X1060640Y1121070D01*
X1043100Y1122370D02*
X1043100Y1115370D01*
X1043100Y1122370D02*
X1050100Y1122370D01*
X1050100Y1115370D01*
X1043100Y1115370D01*
X1043100Y1118220D02*
X1050100Y1118220D01*
X1050100Y1121070D02*
X1043100Y1121070D01*
D12*
X1276270Y1135320D03*
X1276270Y1191320D03*
D13*
X1239520Y1148320D03*
X1239520Y1158320D03*
X1239520Y1168320D03*
X1239520Y1178320D03*
D12*
X1050370Y1191320D03*
X1050370Y1135320D03*
D13*
X1087120Y1178320D03*
X1087120Y1168320D03*
X1087120Y1158320D03*
X1087120Y1148320D03*
D10*
X1188720Y1127370D03*
X1188720Y1110370D03*
X1137920Y1127370D03*
X1137920Y1110370D03*
X1125220Y1154820D03*
X1125220Y1171820D03*
D14*
X1046870Y1099820D03*
X1063870Y1099820D03*
D15*
X1150320Y1163320D03*
X1176320Y1163320D03*
D16*
X1158320Y1150320D03*
X1163320Y1150320D03*
X1168320Y1150320D03*
D15*
X1176320Y1153320D03*
X1176320Y1173320D03*
D16*
X1168320Y1176320D03*
X1163320Y1176320D03*
X1158320Y1176320D03*
D15*
X1150320Y1173320D03*
X1150320Y1153320D03*
D10*
X165100Y1413900D03*
X165100Y1430900D03*
D11*
X24320Y1381450D02*
X24320Y1374450D01*
X24320Y1381450D02*
X31320Y1381450D01*
X31320Y1374450D01*
X24320Y1374450D01*
X24320Y1377300D02*
X31320Y1377300D01*
X31320Y1380150D02*
X24320Y1380150D01*
X6780Y1381450D02*
X6780Y1374450D01*
X6780Y1381450D02*
X13780Y1381450D01*
X13780Y1374450D01*
X6780Y1374450D01*
X6780Y1377300D02*
X13780Y1377300D01*
X13780Y1380150D02*
X6780Y1380150D01*
D12*
X239950Y1394400D03*
X239950Y1450400D03*
D13*
X203200Y1407400D03*
X203200Y1417400D03*
X203200Y1427400D03*
X203200Y1437400D03*
D12*
X14050Y1450400D03*
X14050Y1394400D03*
D13*
X50800Y1437400D03*
X50800Y1427400D03*
X50800Y1417400D03*
X50800Y1407400D03*
D10*
X152400Y1386450D03*
X152400Y1369450D03*
X101600Y1386450D03*
X101600Y1369450D03*
X88900Y1413900D03*
X88900Y1430900D03*
D14*
X10550Y1358900D03*
X27550Y1358900D03*
D15*
X114000Y1422400D03*
X140000Y1422400D03*
D16*
X122000Y1409400D03*
X127000Y1409400D03*
X132000Y1409400D03*
D15*
X140000Y1412400D03*
X140000Y1432400D03*
D16*
X132000Y1435400D03*
X127000Y1435400D03*
X122000Y1435400D03*
D15*
X114000Y1432400D03*
X114000Y1412400D03*
D10*
X424180Y1413900D03*
X424180Y1430900D03*
D11*
X283400Y1381450D02*
X283400Y1374450D01*
X283400Y1381450D02*
X290400Y1381450D01*
X290400Y1374450D01*
X283400Y1374450D01*
X283400Y1377300D02*
X290400Y1377300D01*
X290400Y1380150D02*
X283400Y1380150D01*
X265860Y1381450D02*
X265860Y1374450D01*
X265860Y1381450D02*
X272860Y1381450D01*
X272860Y1374450D01*
X265860Y1374450D01*
X265860Y1377300D02*
X272860Y1377300D01*
X272860Y1380150D02*
X265860Y1380150D01*
D12*
X499030Y1394400D03*
X499030Y1450400D03*
D13*
X462280Y1407400D03*
X462280Y1417400D03*
X462280Y1427400D03*
X462280Y1437400D03*
D12*
X273130Y1450400D03*
X273130Y1394400D03*
D13*
X309880Y1437400D03*
X309880Y1427400D03*
X309880Y1417400D03*
X309880Y1407400D03*
D10*
X411480Y1386450D03*
X411480Y1369450D03*
X360680Y1386450D03*
X360680Y1369450D03*
X347980Y1413900D03*
X347980Y1430900D03*
D14*
X269630Y1358900D03*
X286630Y1358900D03*
D15*
X373080Y1422400D03*
X399080Y1422400D03*
D16*
X381080Y1409400D03*
X386080Y1409400D03*
X391080Y1409400D03*
D15*
X399080Y1412400D03*
X399080Y1432400D03*
D16*
X391080Y1435400D03*
X386080Y1435400D03*
X381080Y1435400D03*
D15*
X373080Y1432400D03*
X373080Y1412400D03*
D10*
X683260Y1413900D03*
X683260Y1430900D03*
D11*
X542480Y1381450D02*
X542480Y1374450D01*
X542480Y1381450D02*
X549480Y1381450D01*
X549480Y1374450D01*
X542480Y1374450D01*
X542480Y1377300D02*
X549480Y1377300D01*
X549480Y1380150D02*
X542480Y1380150D01*
X524940Y1381450D02*
X524940Y1374450D01*
X524940Y1381450D02*
X531940Y1381450D01*
X531940Y1374450D01*
X524940Y1374450D01*
X524940Y1377300D02*
X531940Y1377300D01*
X531940Y1380150D02*
X524940Y1380150D01*
D12*
X758110Y1394400D03*
X758110Y1450400D03*
D13*
X721360Y1407400D03*
X721360Y1417400D03*
X721360Y1427400D03*
X721360Y1437400D03*
D12*
X532210Y1450400D03*
X532210Y1394400D03*
D13*
X568960Y1437400D03*
X568960Y1427400D03*
X568960Y1417400D03*
X568960Y1407400D03*
D10*
X670560Y1386450D03*
X670560Y1369450D03*
X619760Y1386450D03*
X619760Y1369450D03*
X607060Y1413900D03*
X607060Y1430900D03*
D14*
X528710Y1358900D03*
X545710Y1358900D03*
D15*
X632160Y1422400D03*
X658160Y1422400D03*
D16*
X640160Y1409400D03*
X645160Y1409400D03*
X650160Y1409400D03*
D15*
X658160Y1412400D03*
X658160Y1432400D03*
D16*
X650160Y1435400D03*
X645160Y1435400D03*
X640160Y1435400D03*
D15*
X632160Y1432400D03*
X632160Y1412400D03*
D10*
X942340Y1413900D03*
X942340Y1430900D03*
D11*
X801560Y1381450D02*
X801560Y1374450D01*
X801560Y1381450D02*
X808560Y1381450D01*
X808560Y1374450D01*
X801560Y1374450D01*
X801560Y1377300D02*
X808560Y1377300D01*
X808560Y1380150D02*
X801560Y1380150D01*
X784020Y1381450D02*
X784020Y1374450D01*
X784020Y1381450D02*
X791020Y1381450D01*
X791020Y1374450D01*
X784020Y1374450D01*
X784020Y1377300D02*
X791020Y1377300D01*
X791020Y1380150D02*
X784020Y1380150D01*
D12*
X1017190Y1394400D03*
X1017190Y1450400D03*
D13*
X980440Y1407400D03*
X980440Y1417400D03*
X980440Y1427400D03*
X980440Y1437400D03*
D12*
X791290Y1450400D03*
X791290Y1394400D03*
D13*
X828040Y1437400D03*
X828040Y1427400D03*
X828040Y1417400D03*
X828040Y1407400D03*
D10*
X929640Y1386450D03*
X929640Y1369450D03*
X878840Y1386450D03*
X878840Y1369450D03*
X866140Y1413900D03*
X866140Y1430900D03*
D14*
X787790Y1358900D03*
X804790Y1358900D03*
D15*
X891240Y1422400D03*
X917240Y1422400D03*
D16*
X899240Y1409400D03*
X904240Y1409400D03*
X909240Y1409400D03*
D15*
X917240Y1412400D03*
X917240Y1432400D03*
D16*
X909240Y1435400D03*
X904240Y1435400D03*
X899240Y1435400D03*
D15*
X891240Y1432400D03*
X891240Y1412400D03*
D10*
X1201420Y1413900D03*
X1201420Y1430900D03*
D11*
X1060640Y1381450D02*
X1060640Y1374450D01*
X1060640Y1381450D02*
X1067640Y1381450D01*
X1067640Y1374450D01*
X1060640Y1374450D01*
X1060640Y1377300D02*
X1067640Y1377300D01*
X1067640Y1380150D02*
X1060640Y1380150D01*
X1043100Y1381450D02*
X1043100Y1374450D01*
X1043100Y1381450D02*
X1050100Y1381450D01*
X1050100Y1374450D01*
X1043100Y1374450D01*
X1043100Y1377300D02*
X1050100Y1377300D01*
X1050100Y1380150D02*
X1043100Y1380150D01*
D12*
X1276270Y1394400D03*
X1276270Y1450400D03*
D13*
X1239520Y1407400D03*
X1239520Y1417400D03*
X1239520Y1427400D03*
X1239520Y1437400D03*
D12*
X1050370Y1450400D03*
X1050370Y1394400D03*
D13*
X1087120Y1437400D03*
X1087120Y1427400D03*
X1087120Y1417400D03*
X1087120Y1407400D03*
D10*
X1188720Y1386450D03*
X1188720Y1369450D03*
X1137920Y1386450D03*
X1137920Y1369450D03*
X1125220Y1413900D03*
X1125220Y1430900D03*
D14*
X1046870Y1358900D03*
X1063870Y1358900D03*
D15*
X1150320Y1422400D03*
X1176320Y1422400D03*
D16*
X1158320Y1409400D03*
X1163320Y1409400D03*
X1168320Y1409400D03*
D15*
X1176320Y1412400D03*
X1176320Y1432400D03*
D16*
X1168320Y1435400D03*
X1163320Y1435400D03*
X1158320Y1435400D03*
D15*
X1150320Y1432400D03*
X1150320Y1412400D03*
D10*
X165100Y1672980D03*
X165100Y1689980D03*
D11*
X24320Y1640530D02*
X24320Y1633530D01*
X24320Y1640530D02*
X31320Y1640530D01*
X31320Y1633530D01*
X24320Y1633530D01*
X24320Y1636380D02*
X31320Y1636380D01*
X31320Y1639230D02*
X24320Y1639230D01*
X6780Y1640530D02*
X6780Y1633530D01*
X6780Y1640530D02*
X13780Y1640530D01*
X13780Y1633530D01*
X6780Y1633530D01*
X6780Y1636380D02*
X13780Y1636380D01*
X13780Y1639230D02*
X6780Y1639230D01*
D12*
X239950Y1653480D03*
X239950Y1709480D03*
D13*
X203200Y1666480D03*
X203200Y1676480D03*
X203200Y1686480D03*
X203200Y1696480D03*
D12*
X14050Y1709480D03*
X14050Y1653480D03*
D13*
X50800Y1696480D03*
X50800Y1686480D03*
X50800Y1676480D03*
X50800Y1666480D03*
D10*
X152400Y1645530D03*
X152400Y1628530D03*
X101600Y1645530D03*
X101600Y1628530D03*
X88900Y1672980D03*
X88900Y1689980D03*
D14*
X10550Y1617980D03*
X27550Y1617980D03*
D15*
X114000Y1681480D03*
X140000Y1681480D03*
D16*
X122000Y1668480D03*
X127000Y1668480D03*
X132000Y1668480D03*
D15*
X140000Y1671480D03*
X140000Y1691480D03*
D16*
X132000Y1694480D03*
X127000Y1694480D03*
X122000Y1694480D03*
D15*
X114000Y1691480D03*
X114000Y1671480D03*
D10*
X424180Y1672980D03*
X424180Y1689980D03*
D11*
X283400Y1640530D02*
X283400Y1633530D01*
X283400Y1640530D02*
X290400Y1640530D01*
X290400Y1633530D01*
X283400Y1633530D01*
X283400Y1636380D02*
X290400Y1636380D01*
X290400Y1639230D02*
X283400Y1639230D01*
X265860Y1640530D02*
X265860Y1633530D01*
X265860Y1640530D02*
X272860Y1640530D01*
X272860Y1633530D01*
X265860Y1633530D01*
X265860Y1636380D02*
X272860Y1636380D01*
X272860Y1639230D02*
X265860Y1639230D01*
D12*
X499030Y1653480D03*
X499030Y1709480D03*
D13*
X462280Y1666480D03*
X462280Y1676480D03*
X462280Y1686480D03*
X462280Y1696480D03*
D12*
X273130Y1709480D03*
X273130Y1653480D03*
D13*
X309880Y1696480D03*
X309880Y1686480D03*
X309880Y1676480D03*
X309880Y1666480D03*
D10*
X411480Y1645530D03*
X411480Y1628530D03*
X360680Y1645530D03*
X360680Y1628530D03*
X347980Y1672980D03*
X347980Y1689980D03*
D14*
X269630Y1617980D03*
X286630Y1617980D03*
D15*
X373080Y1681480D03*
X399080Y1681480D03*
D16*
X381080Y1668480D03*
X386080Y1668480D03*
X391080Y1668480D03*
D15*
X399080Y1671480D03*
X399080Y1691480D03*
D16*
X391080Y1694480D03*
X386080Y1694480D03*
X381080Y1694480D03*
D15*
X373080Y1691480D03*
X373080Y1671480D03*
D10*
X683260Y1672980D03*
X683260Y1689980D03*
D11*
X542480Y1640530D02*
X542480Y1633530D01*
X542480Y1640530D02*
X549480Y1640530D01*
X549480Y1633530D01*
X542480Y1633530D01*
X542480Y1636380D02*
X549480Y1636380D01*
X549480Y1639230D02*
X542480Y1639230D01*
X524940Y1640530D02*
X524940Y1633530D01*
X524940Y1640530D02*
X531940Y1640530D01*
X531940Y1633530D01*
X524940Y1633530D01*
X524940Y1636380D02*
X531940Y1636380D01*
X531940Y1639230D02*
X524940Y1639230D01*
D12*
X758110Y1653480D03*
X758110Y1709480D03*
D13*
X721360Y1666480D03*
X721360Y1676480D03*
X721360Y1686480D03*
X721360Y1696480D03*
D12*
X532210Y1709480D03*
X532210Y1653480D03*
D13*
X568960Y1696480D03*
X568960Y1686480D03*
X568960Y1676480D03*
X568960Y1666480D03*
D10*
X670560Y1645530D03*
X670560Y1628530D03*
X619760Y1645530D03*
X619760Y1628530D03*
X607060Y1672980D03*
X607060Y1689980D03*
D14*
X528710Y1617980D03*
X545710Y1617980D03*
D15*
X632160Y1681480D03*
X658160Y1681480D03*
D16*
X640160Y1668480D03*
X645160Y1668480D03*
X650160Y1668480D03*
D15*
X658160Y1671480D03*
X658160Y1691480D03*
D16*
X650160Y1694480D03*
X645160Y1694480D03*
X640160Y1694480D03*
D15*
X632160Y1691480D03*
X632160Y1671480D03*
D10*
X942340Y1672980D03*
X942340Y1689980D03*
D11*
X801560Y1640530D02*
X801560Y1633530D01*
X801560Y1640530D02*
X808560Y1640530D01*
X808560Y1633530D01*
X801560Y1633530D01*
X801560Y1636380D02*
X808560Y1636380D01*
X808560Y1639230D02*
X801560Y1639230D01*
X784020Y1640530D02*
X784020Y1633530D01*
X784020Y1640530D02*
X791020Y1640530D01*
X791020Y1633530D01*
X784020Y1633530D01*
X784020Y1636380D02*
X791020Y1636380D01*
X791020Y1639230D02*
X784020Y1639230D01*
D12*
X1017190Y1653480D03*
X1017190Y1709480D03*
D13*
X980440Y1666480D03*
X980440Y1676480D03*
X980440Y1686480D03*
X980440Y1696480D03*
D12*
X791290Y1709480D03*
X791290Y1653480D03*
D13*
X828040Y1696480D03*
X828040Y1686480D03*
X828040Y1676480D03*
X828040Y1666480D03*
D10*
X929640Y1645530D03*
X929640Y1628530D03*
X878840Y1645530D03*
X878840Y1628530D03*
X866140Y1672980D03*
X866140Y1689980D03*
D14*
X787790Y1617980D03*
X804790Y1617980D03*
D15*
X891240Y1681480D03*
X917240Y1681480D03*
D16*
X899240Y1668480D03*
X904240Y1668480D03*
X909240Y1668480D03*
D15*
X917240Y1671480D03*
X917240Y1691480D03*
D16*
X909240Y1694480D03*
X904240Y1694480D03*
X899240Y1694480D03*
D15*
X891240Y1691480D03*
X891240Y1671480D03*
D10*
X1201420Y1672980D03*
X1201420Y1689980D03*
D11*
X1060640Y1640530D02*
X1060640Y1633530D01*
X1060640Y1640530D02*
X1067640Y1640530D01*
X1067640Y1633530D01*
X1060640Y1633530D01*
X1060640Y1636380D02*
X1067640Y1636380D01*
X1067640Y1639230D02*
X1060640Y1639230D01*
X1043100Y1640530D02*
X1043100Y1633530D01*
X1043100Y1640530D02*
X1050100Y1640530D01*
X1050100Y1633530D01*
X1043100Y1633530D01*
X1043100Y1636380D02*
X1050100Y1636380D01*
X1050100Y1639230D02*
X1043100Y1639230D01*
D12*
X1276270Y1653480D03*
X1276270Y1709480D03*
D13*
X1239520Y1666480D03*
X1239520Y1676480D03*
X1239520Y1686480D03*
X1239520Y1696480D03*
D12*
X1050370Y1709480D03*
X1050370Y1653480D03*
D13*
X1087120Y1696480D03*
X1087120Y1686480D03*
X1087120Y1676480D03*
X1087120Y1666480D03*
D10*
X1188720Y1645530D03*
X1188720Y1628530D03*
X1137920Y1645530D03*
X1137920Y1628530D03*
X1125220Y1672980D03*
X1125220Y1689980D03*
D14*
X1046870Y1617980D03*
X1063870Y1617980D03*
D15*
X1150320Y1681480D03*
X1176320Y1681480D03*
D16*
X1158320Y1668480D03*
X1163320Y1668480D03*
X1168320Y1668480D03*
D15*
X1176320Y1671480D03*
X1176320Y1691480D03*
D16*
X1168320Y1694480D03*
X1163320Y1694480D03*
X1158320Y1694480D03*
D15*
X1150320Y1691480D03*
X1150320Y1671480D03*
M02*
