G04 EAGLE Gerber RS-274X export*
G75*
%MOMM*%
%FSLAX34Y34*%
%LPD*%
%INSoldermask Bottom*%
%IPPOS*%
%AMOC8*
5,1,8,0,0,1.08239X$1,22.5*%
G01*
%ADD10C,2.082800*%
%ADD11C,3.505200*%
%ADD12C,0.838200*%
%ADD13C,1.203200*%


D10*
X63500Y12700D03*
X88900Y12700D03*
X114300Y12700D03*
X139700Y12700D03*
D11*
X228600Y228600D03*
X25400Y228600D03*
X228600Y25400D03*
X25400Y25400D03*
D12*
X6350Y6350D03*
X247650Y247650D03*
D10*
X165100Y12700D03*
X190500Y12700D03*
X322580Y12700D03*
X347980Y12700D03*
X373380Y12700D03*
X398780Y12700D03*
D11*
X487680Y228600D03*
X284480Y228600D03*
X487680Y25400D03*
X284480Y25400D03*
D12*
X265430Y6350D03*
X506730Y247650D03*
D10*
X424180Y12700D03*
X449580Y12700D03*
X581660Y12700D03*
X607060Y12700D03*
X632460Y12700D03*
X657860Y12700D03*
D11*
X746760Y228600D03*
X543560Y228600D03*
X746760Y25400D03*
X543560Y25400D03*
D12*
X524510Y6350D03*
X765810Y247650D03*
D10*
X683260Y12700D03*
X708660Y12700D03*
X840740Y12700D03*
X866140Y12700D03*
X891540Y12700D03*
X916940Y12700D03*
D11*
X1005840Y228600D03*
X802640Y228600D03*
X1005840Y25400D03*
X802640Y25400D03*
D12*
X783590Y6350D03*
X1024890Y247650D03*
D10*
X942340Y12700D03*
X967740Y12700D03*
X1099820Y12700D03*
X1125220Y12700D03*
X1150620Y12700D03*
X1176020Y12700D03*
D11*
X1264920Y228600D03*
X1061720Y228600D03*
X1264920Y25400D03*
X1061720Y25400D03*
D12*
X1042670Y6350D03*
X1283970Y247650D03*
D10*
X1201420Y12700D03*
X1226820Y12700D03*
X63500Y271780D03*
X88900Y271780D03*
X114300Y271780D03*
X139700Y271780D03*
D11*
X228600Y487680D03*
X25400Y487680D03*
X228600Y284480D03*
X25400Y284480D03*
D12*
X6350Y265430D03*
X247650Y506730D03*
D10*
X165100Y271780D03*
X190500Y271780D03*
X322580Y271780D03*
X347980Y271780D03*
X373380Y271780D03*
X398780Y271780D03*
D11*
X487680Y487680D03*
X284480Y487680D03*
X487680Y284480D03*
X284480Y284480D03*
D12*
X265430Y265430D03*
X506730Y506730D03*
D10*
X424180Y271780D03*
X449580Y271780D03*
X581660Y271780D03*
X607060Y271780D03*
X632460Y271780D03*
X657860Y271780D03*
D11*
X746760Y487680D03*
X543560Y487680D03*
X746760Y284480D03*
X543560Y284480D03*
D12*
X524510Y265430D03*
X765810Y506730D03*
D10*
X683260Y271780D03*
X708660Y271780D03*
X840740Y271780D03*
X866140Y271780D03*
X891540Y271780D03*
X916940Y271780D03*
D11*
X1005840Y487680D03*
X802640Y487680D03*
X1005840Y284480D03*
X802640Y284480D03*
D12*
X783590Y265430D03*
X1024890Y506730D03*
D10*
X942340Y271780D03*
X967740Y271780D03*
X1099820Y271780D03*
X1125220Y271780D03*
X1150620Y271780D03*
X1176020Y271780D03*
D11*
X1264920Y487680D03*
X1061720Y487680D03*
X1264920Y284480D03*
X1061720Y284480D03*
D12*
X1042670Y265430D03*
X1283970Y506730D03*
D10*
X1201420Y271780D03*
X1226820Y271780D03*
X63500Y530860D03*
X88900Y530860D03*
X114300Y530860D03*
X139700Y530860D03*
D11*
X228600Y746760D03*
X25400Y746760D03*
X228600Y543560D03*
X25400Y543560D03*
D12*
X6350Y524510D03*
X247650Y765810D03*
D10*
X165100Y530860D03*
X190500Y530860D03*
X322580Y530860D03*
X347980Y530860D03*
X373380Y530860D03*
X398780Y530860D03*
D11*
X487680Y746760D03*
X284480Y746760D03*
X487680Y543560D03*
X284480Y543560D03*
D12*
X265430Y524510D03*
X506730Y765810D03*
D10*
X424180Y530860D03*
X449580Y530860D03*
X581660Y530860D03*
X607060Y530860D03*
X632460Y530860D03*
X657860Y530860D03*
D11*
X746760Y746760D03*
X543560Y746760D03*
X746760Y543560D03*
X543560Y543560D03*
D12*
X524510Y524510D03*
X765810Y765810D03*
D10*
X683260Y530860D03*
X708660Y530860D03*
X840740Y530860D03*
X866140Y530860D03*
X891540Y530860D03*
X916940Y530860D03*
D11*
X1005840Y746760D03*
X802640Y746760D03*
X1005840Y543560D03*
X802640Y543560D03*
D12*
X783590Y524510D03*
X1024890Y765810D03*
D10*
X942340Y530860D03*
X967740Y530860D03*
X1099820Y530860D03*
X1125220Y530860D03*
X1150620Y530860D03*
X1176020Y530860D03*
D11*
X1264920Y746760D03*
X1061720Y746760D03*
X1264920Y543560D03*
X1061720Y543560D03*
D12*
X1042670Y524510D03*
X1283970Y765810D03*
D10*
X1201420Y530860D03*
X1226820Y530860D03*
X63500Y789940D03*
X88900Y789940D03*
X114300Y789940D03*
X139700Y789940D03*
D11*
X228600Y1005840D03*
X25400Y1005840D03*
X228600Y802640D03*
X25400Y802640D03*
D12*
X6350Y783590D03*
X247650Y1024890D03*
D10*
X165100Y789940D03*
X190500Y789940D03*
X322580Y789940D03*
X347980Y789940D03*
X373380Y789940D03*
X398780Y789940D03*
D11*
X487680Y1005840D03*
X284480Y1005840D03*
X487680Y802640D03*
X284480Y802640D03*
D12*
X265430Y783590D03*
X506730Y1024890D03*
D10*
X424180Y789940D03*
X449580Y789940D03*
X581660Y789940D03*
X607060Y789940D03*
X632460Y789940D03*
X657860Y789940D03*
D11*
X746760Y1005840D03*
X543560Y1005840D03*
X746760Y802640D03*
X543560Y802640D03*
D12*
X524510Y783590D03*
X765810Y1024890D03*
D10*
X683260Y789940D03*
X708660Y789940D03*
X840740Y789940D03*
X866140Y789940D03*
X891540Y789940D03*
X916940Y789940D03*
D11*
X1005840Y1005840D03*
X802640Y1005840D03*
X1005840Y802640D03*
X802640Y802640D03*
D12*
X783590Y783590D03*
X1024890Y1024890D03*
D10*
X942340Y789940D03*
X967740Y789940D03*
X1099820Y789940D03*
X1125220Y789940D03*
X1150620Y789940D03*
X1176020Y789940D03*
D11*
X1264920Y1005840D03*
X1061720Y1005840D03*
X1264920Y802640D03*
X1061720Y802640D03*
D12*
X1042670Y783590D03*
X1283970Y1024890D03*
D10*
X1201420Y789940D03*
X1226820Y789940D03*
X63500Y1049020D03*
X88900Y1049020D03*
X114300Y1049020D03*
X139700Y1049020D03*
D11*
X228600Y1264920D03*
X25400Y1264920D03*
X228600Y1061720D03*
X25400Y1061720D03*
D12*
X6350Y1042670D03*
X247650Y1283970D03*
D10*
X165100Y1049020D03*
X190500Y1049020D03*
X322580Y1049020D03*
X347980Y1049020D03*
X373380Y1049020D03*
X398780Y1049020D03*
D11*
X487680Y1264920D03*
X284480Y1264920D03*
X487680Y1061720D03*
X284480Y1061720D03*
D12*
X265430Y1042670D03*
X506730Y1283970D03*
D10*
X424180Y1049020D03*
X449580Y1049020D03*
X581660Y1049020D03*
X607060Y1049020D03*
X632460Y1049020D03*
X657860Y1049020D03*
D11*
X746760Y1264920D03*
X543560Y1264920D03*
X746760Y1061720D03*
X543560Y1061720D03*
D12*
X524510Y1042670D03*
X765810Y1283970D03*
D10*
X683260Y1049020D03*
X708660Y1049020D03*
X840740Y1049020D03*
X866140Y1049020D03*
X891540Y1049020D03*
X916940Y1049020D03*
D11*
X1005840Y1264920D03*
X802640Y1264920D03*
X1005840Y1061720D03*
X802640Y1061720D03*
D12*
X783590Y1042670D03*
X1024890Y1283970D03*
D10*
X942340Y1049020D03*
X967740Y1049020D03*
X1099820Y1049020D03*
X1125220Y1049020D03*
X1150620Y1049020D03*
X1176020Y1049020D03*
D11*
X1264920Y1264920D03*
X1061720Y1264920D03*
X1264920Y1061720D03*
X1061720Y1061720D03*
D12*
X1042670Y1042670D03*
X1283970Y1283970D03*
D10*
X1201420Y1049020D03*
X1226820Y1049020D03*
X63500Y1308100D03*
X88900Y1308100D03*
X114300Y1308100D03*
X139700Y1308100D03*
D11*
X228600Y1524000D03*
X25400Y1524000D03*
X228600Y1320800D03*
X25400Y1320800D03*
D12*
X6350Y1301750D03*
X247650Y1543050D03*
D10*
X165100Y1308100D03*
X190500Y1308100D03*
X322580Y1308100D03*
X347980Y1308100D03*
X373380Y1308100D03*
X398780Y1308100D03*
D11*
X487680Y1524000D03*
X284480Y1524000D03*
X487680Y1320800D03*
X284480Y1320800D03*
D12*
X265430Y1301750D03*
X506730Y1543050D03*
D10*
X424180Y1308100D03*
X449580Y1308100D03*
X581660Y1308100D03*
X607060Y1308100D03*
X632460Y1308100D03*
X657860Y1308100D03*
D11*
X746760Y1524000D03*
X543560Y1524000D03*
X746760Y1320800D03*
X543560Y1320800D03*
D12*
X524510Y1301750D03*
X765810Y1543050D03*
D10*
X683260Y1308100D03*
X708660Y1308100D03*
X840740Y1308100D03*
X866140Y1308100D03*
X891540Y1308100D03*
X916940Y1308100D03*
D11*
X1005840Y1524000D03*
X802640Y1524000D03*
X1005840Y1320800D03*
X802640Y1320800D03*
D12*
X783590Y1301750D03*
X1024890Y1543050D03*
D10*
X942340Y1308100D03*
X967740Y1308100D03*
X1099820Y1308100D03*
X1125220Y1308100D03*
X1150620Y1308100D03*
X1176020Y1308100D03*
D11*
X1264920Y1524000D03*
X1061720Y1524000D03*
X1264920Y1320800D03*
X1061720Y1320800D03*
D12*
X1042670Y1301750D03*
X1283970Y1543050D03*
D10*
X1201420Y1308100D03*
X1226820Y1308100D03*
X63500Y1567180D03*
X88900Y1567180D03*
X114300Y1567180D03*
X139700Y1567180D03*
D11*
X228600Y1783080D03*
X25400Y1783080D03*
X228600Y1579880D03*
X25400Y1579880D03*
D12*
X6350Y1560830D03*
X247650Y1802130D03*
D10*
X165100Y1567180D03*
X190500Y1567180D03*
X322580Y1567180D03*
X347980Y1567180D03*
X373380Y1567180D03*
X398780Y1567180D03*
D11*
X487680Y1783080D03*
X284480Y1783080D03*
X487680Y1579880D03*
X284480Y1579880D03*
D12*
X265430Y1560830D03*
X506730Y1802130D03*
D10*
X424180Y1567180D03*
X449580Y1567180D03*
X581660Y1567180D03*
X607060Y1567180D03*
X632460Y1567180D03*
X657860Y1567180D03*
D11*
X746760Y1783080D03*
X543560Y1783080D03*
X746760Y1579880D03*
X543560Y1579880D03*
D12*
X524510Y1560830D03*
X765810Y1802130D03*
D10*
X683260Y1567180D03*
X708660Y1567180D03*
X840740Y1567180D03*
X866140Y1567180D03*
X891540Y1567180D03*
X916940Y1567180D03*
D11*
X1005840Y1783080D03*
X802640Y1783080D03*
X1005840Y1579880D03*
X802640Y1579880D03*
D12*
X783590Y1560830D03*
X1024890Y1802130D03*
D10*
X942340Y1567180D03*
X967740Y1567180D03*
X1099820Y1567180D03*
X1125220Y1567180D03*
X1150620Y1567180D03*
X1176020Y1567180D03*
D11*
X1264920Y1783080D03*
X1061720Y1783080D03*
X1264920Y1579880D03*
X1061720Y1579880D03*
D12*
X1042670Y1560830D03*
X1283970Y1802130D03*
D10*
X1201420Y1567180D03*
X1226820Y1567180D03*
D13*
X68580Y1829435D03*
X1221105Y1829435D03*
M02*
